<?xml version="1.0" encoding="UTF-8" standalone="yes"?>
<svg xmlns="http://www.w3.org/2000/svg" xmlns:xlink="http://www.w3.org/1999/xlink" width="24px" height="24px" viewBox="0 0 24 24" version="1.1" fill="#000000">
  <g id="surface45967">
    <path style=" stroke:none;fill-rule:nonzero;fill:#000000;fill-opacity:1;" d="M 4.800781 3.199219 C 3.914062 3.199219 3.199219 3.914062 3.199219 4.800781 L 3.199219 19.199219 C 3.199219 20.085938 3.914062 20.800781 4.800781 20.800781 L 19.199219 20.800781 C 20.085938 20.800781 20.800781 20.085938 20.800781 19.199219 L 20.800781 4.800781 C 20.800781 3.914062 20.085938 3.199219 19.199219 3.199219 Z M 11.898438 6.398438 C 13.753906 6.398438 14.671875 7.574219 14.671875 7.574219 L 14.671875 6.574219 L 16.152344 6.574219 L 16.152344 13.371094 C 16.152344 14.476562 16.324219 17.601562 12.050781 17.601562 C 7.914062 17.601562 8.1875 15.34375 8.1875 15.101562 L 9.71875 15.277344 C 9.925781 16.257812 10.761719 16.523438 12.050781 16.523438 C 14.691406 16.523438 14.535156 14.519531 14.535156 13.390625 C 14.535156 13.390625 13.675781 14.414062 11.964844 14.414062 C 10.25 14.414062 7.847656 13.539062 7.847656 10.410156 C 7.847656 7.484375 10.042969 6.398438 11.898438 6.398438 Z M 12.070312 7.492188 C 10.339844 7.492188 9.476562 8.796875 9.476562 10.410156 C 9.476562 12.019531 10.261719 13.328125 12.070312 13.328125 C 13.882812 13.328125 14.664062 12.019531 14.664062 10.410156 C 14.664062 8.796875 13.804688 7.492188 12.070312 7.492188 Z M 12.070312 7.492188 "/>
  </g>
</svg>
